<svg width="201" height="48" viewBox="0 0 201 48" fill="none" xmlns="http://www.w3.org/2000/svg">
<g clip-path="url(#clip0_1068_4407)">
<path d="M77.7295 10.7881C78.645 10.7881 79.4809 10.9406 80.2379 11.2458C81.007 11.551 81.6781 11.9538 82.252 12.4543L80.421 14.3585C79.9689 14.0289 79.5605 13.7909 79.1943 13.6444C78.8281 13.4979 78.4126 13.4247 77.9492 13.4247C77.0577 13.4247 76.3746 13.7665 75.8985 14.4501C75.4225 15.1214 75.1844 16.1467 75.1844 17.5261C75.1844 18.5636 75.2577 19.3815 75.4041 19.9796C75.5506 20.5656 75.776 20.9806 76.0816 21.2247C76.3985 21.4688 76.814 21.5909 77.3267 21.5909C77.7781 21.5909 78.2112 21.4871 78.6267 21.2796V18.9543H77.345L76.9971 16.4092H82.252V22.7994C81.5802 23.2632 80.8112 23.6233 79.945 23.8796C79.0781 24.136 78.2422 24.2641 77.4365 24.2641C75.3492 24.2641 73.8048 23.6965 72.8041 22.5613C71.8027 21.4139 71.3027 19.7294 71.3027 17.5078C71.3027 16.104 71.5774 14.8956 72.1267 13.8825C72.676 12.8693 73.4386 12.1003 74.4154 11.5754C75.3915 11.0505 76.4964 10.7881 77.7295 10.7881Z" fill="#B9B8CC"/>
<path d="M92.8776 18.8816C92.8776 19.1868 92.8529 19.5713 92.8043 20.0352H86.8719C86.9698 20.6943 87.1712 21.1398 87.4762 21.3718C87.7938 21.5915 88.2452 21.7014 88.8311 21.7014C89.1726 21.7014 89.5205 21.6342 89.8748 21.5C90.229 21.3535 90.6191 21.1338 91.0466 20.8408L92.5114 22.8183C91.3276 23.7826 89.9846 24.2647 88.4832 24.2647C86.7501 24.2647 85.4374 23.7887 84.5466 22.8366C83.6557 21.8722 83.21 20.6028 83.21 19.0281C83.21 18.0516 83.3931 17.1666 83.7593 16.3732C84.1374 15.5676 84.6931 14.9328 85.4255 14.469C86.1579 13.9929 87.0431 13.7549 88.0804 13.7549C89.0445 13.7549 89.8867 13.9563 90.6071 14.3591C91.3276 14.7619 91.8825 15.3478 92.2733 16.1169C92.6762 16.8859 92.8776 17.8074 92.8776 18.8816ZM89.3071 17.8563C89.2952 17.2826 89.2036 16.837 89.0325 16.5197C88.874 16.2023 88.5811 16.0436 88.1536 16.0436C87.7508 16.0436 87.4459 16.184 87.2381 16.4647C87.0431 16.7454 86.9149 17.2521 86.8536 17.9845H89.3071V17.8563Z" fill="#B9B8CC"/>
<path d="M98.4376 13.7549C99.9995 13.7549 101.226 14.2126 102.118 15.1281C103.021 16.0436 103.473 17.3436 103.473 19.0281C103.473 20.0778 103.265 20.9995 102.85 21.7929C102.447 22.5863 101.867 23.1966 101.111 23.6239C100.354 24.0511 99.4629 24.2647 98.4376 24.2647C96.8749 24.2647 95.6418 23.807 94.739 22.8915C93.8474 21.976 93.4023 20.676 93.4023 18.9915C93.4023 17.9417 93.6038 17.0201 94.0066 16.2267C94.4214 15.4333 95.0073 14.8229 95.7643 14.3957C96.5206 13.9685 97.4122 13.7549 98.4376 13.7549ZM98.4376 16.3549C97.9735 16.3549 97.6376 16.5623 97.4305 16.9774C97.2228 17.3924 97.1192 18.0638 97.1192 18.9915C97.1192 19.9558 97.2228 20.6454 97.4305 21.0605C97.6376 21.4633 97.9735 21.6647 98.4376 21.6647C98.9009 21.6647 99.2369 21.4572 99.4446 21.0422C99.6516 20.6271 99.7559 19.9558 99.7559 19.0281C99.7559 18.0638 99.6516 17.3802 99.4446 16.9774C99.2369 16.5623 98.9009 16.3549 98.4376 16.3549Z" fill="#B9B8CC"/>
<path d="M109.697 12.5092C109.343 12.5092 109.086 12.6007 108.928 12.7838C108.769 12.9669 108.69 13.2842 108.69 13.7359V14.1204H110.96L110.557 16.574H108.69V23.8979H105.064V16.574H103.746V14.1204H105.064V13.5528C105.064 12.4909 105.419 11.6181 106.126 10.9345C106.834 10.2509 107.859 9.90918 109.202 9.90918C109.715 9.90918 110.234 9.97629 110.759 10.1106C111.283 10.2326 111.723 10.3913 112.077 10.5866L111.125 12.8754C110.674 12.6312 110.198 12.5092 109.697 12.5092Z" fill="#B9B8CC"/>
<path d="M116.457 12.5092C116.102 12.5092 115.846 12.6007 115.688 12.7838C115.528 12.9669 115.45 13.2842 115.45 13.7359V14.1204H117.72L117.317 16.574H115.45V23.8979H111.824V16.574H110.506V14.1204H111.824V13.5528C111.824 12.4909 112.178 11.6181 112.886 10.9345C113.594 10.2509 114.619 9.90918 115.962 9.90918C116.475 9.90918 116.993 9.97629 117.519 10.1106C118.043 10.2326 118.483 10.3913 118.837 10.5866L117.885 12.8754C117.433 12.6312 116.957 12.5092 116.457 12.5092Z" fill="#B9B8CC"/>
<path d="M124.002 13.8096C124.319 13.8096 124.649 13.8645 124.99 13.9744L124.423 17.4715C124.093 17.3739 123.795 17.3251 123.526 17.3251C122.989 17.3251 122.586 17.502 122.317 17.856C122.061 18.21 121.854 18.741 121.695 19.449V23.8983H118.069V14.1208H121.237L121.53 15.9518C121.738 15.3049 122.067 14.786 122.519 14.3955C122.971 14.0049 123.465 13.8096 124.002 13.8096Z" fill="#B9B8CC"/>
<path d="M134.235 18.8816C134.235 19.1868 134.211 19.5713 134.162 20.0352H128.229C128.327 20.6943 128.529 21.1398 128.834 21.3718C129.151 21.5915 129.603 21.7014 130.189 21.7014C130.531 21.7014 130.879 21.6342 131.232 21.5C131.586 21.3535 131.977 21.1338 132.404 20.8408L133.869 22.8183C132.685 23.7826 131.342 24.2647 129.841 24.2647C128.108 24.2647 126.796 23.7887 125.904 22.8366C125.013 21.8722 124.567 20.6028 124.567 19.0281C124.567 18.0516 124.75 17.1666 125.117 16.3732C125.496 15.5676 126.05 14.9328 126.783 14.469C127.515 13.9929 128.4 13.7549 129.438 13.7549C130.403 13.7549 131.245 13.9563 131.965 14.3591C132.685 14.7619 133.241 15.3478 133.631 16.1169C134.034 16.8859 134.235 17.8074 134.235 18.8816ZM130.665 17.8563C130.653 17.2826 130.561 16.837 130.39 16.5197C130.231 16.2023 129.939 16.0436 129.511 16.0436C129.108 16.0436 128.803 16.184 128.596 16.4647C128.4 16.7454 128.272 17.2521 128.211 17.9845H130.665V17.8563Z" fill="#B9B8CC"/>
<path d="M141.319 23.8802C140.904 25.2352 140.196 26.2605 139.195 26.9563C138.194 27.6521 136.876 28.0243 135.24 28.0732L134.856 25.6014C135.796 25.5037 136.492 25.3328 136.943 25.0887C137.407 24.8445 137.767 24.4479 138.023 23.8986H136.778L133.995 14.1211H137.84L139.067 21.6831L140.587 14.1211H144.322L141.319 23.8802Z" fill="#B9B8CC"/>
<path d="M154.519 10.7881C156.094 10.7881 157.461 11.2885 158.621 12.2895L156.881 14.3402C156.515 14.0716 156.155 13.8641 155.801 13.7177C155.459 13.5712 155.093 13.4979 154.702 13.4979C153.957 13.4979 153.378 13.8336 152.963 14.505C152.56 15.1763 152.359 16.1712 152.359 17.4895C152.359 18.8078 152.566 19.7965 152.981 20.4557C153.396 21.1026 153.988 21.4261 154.757 21.4261C155.172 21.4261 155.557 21.3406 155.911 21.1698C156.277 20.9989 156.68 20.7425 157.119 20.4008L158.767 22.4881C158.255 23.0008 157.632 23.4279 156.9 23.7698C156.179 24.0994 155.404 24.2641 154.574 24.2641C153.316 24.2641 152.231 24.0078 151.315 23.4951C150.4 22.9702 149.691 22.2012 149.191 21.1881C148.69 20.1749 148.44 18.942 148.44 17.4895C148.44 16.0979 148.697 14.9017 149.209 13.9008C149.722 12.8876 150.436 12.1186 151.352 11.5937C152.267 11.0566 153.323 10.7881 154.519 10.7881Z" fill="#B9B8CC"/>
<path d="M165.289 13.8096C165.606 13.8096 165.936 13.8645 166.278 13.9744L165.71 17.4715C165.38 17.3739 165.082 17.3251 164.813 17.3251C164.276 17.3251 163.873 17.502 163.604 17.856C163.348 18.21 163.141 18.741 162.982 19.449V23.8983H159.356V14.1208H162.524L162.817 15.9518C163.025 15.3049 163.354 14.786 163.806 14.3955C164.258 14.0049 164.752 13.8096 165.289 13.8096Z" fill="#B9B8CC"/>
<path d="M170.89 13.7549C172.452 13.7549 173.679 14.2126 174.57 15.1281C175.474 16.0436 175.925 17.3436 175.925 19.0281C175.925 20.0778 175.718 20.9995 175.302 21.7929C174.9 22.5863 174.32 23.1966 173.563 23.6239C172.807 24.0511 171.915 24.2647 170.89 24.2647C169.328 24.2647 168.095 23.807 167.191 22.8915C166.3 21.976 165.854 20.676 165.854 18.9915C165.854 17.9417 166.056 17.0201 166.459 16.2267C166.874 15.4333 167.46 14.8229 168.216 14.3957C168.974 13.9685 169.864 13.7549 170.89 13.7549ZM170.89 16.3549C170.426 16.3549 170.09 16.5623 169.883 16.9774C169.676 17.3924 169.571 18.0638 169.571 18.9915C169.571 19.9558 169.676 20.6454 169.883 21.0605C170.09 21.4633 170.426 21.6647 170.89 21.6647C171.354 21.6647 171.69 21.4572 171.897 21.0422C172.104 20.6271 172.208 19.9558 172.208 19.0281C172.208 18.0638 172.104 17.3802 171.897 16.9774C171.69 16.5623 171.354 16.3549 170.89 16.3549Z" fill="#B9B8CC"/>
<path d="M182.15 12.5092C181.796 12.5092 181.539 12.6007 181.381 12.7838C181.222 12.9669 181.143 13.2842 181.143 13.7359V14.1204H183.413L183.01 16.574H181.143V23.8979H177.518V16.574H176.199V14.1204H177.518V13.5528C177.518 12.4909 177.872 11.6181 178.58 10.9345C179.287 10.2509 180.313 9.90918 181.656 9.90918C182.168 9.90918 182.687 9.97629 183.212 10.1106C183.737 10.2326 184.176 10.3913 184.53 10.5866L183.578 12.8754C183.127 12.6312 182.651 12.5092 182.15 12.5092Z" fill="#B9B8CC"/>
<path d="M190.612 23.4217C190.233 23.6902 189.769 23.8977 189.22 24.0442C188.683 24.1907 188.17 24.2639 187.682 24.2639C186.474 24.2517 185.576 23.916 184.99 23.2569C184.416 22.5855 184.13 21.5967 184.13 20.2907V16.5738H182.958V14.1203H184.13V12.0696L187.755 11.6484V14.1203H189.952L189.586 16.5738H187.755V20.2541C187.755 20.6813 187.822 20.9865 187.957 21.1696C188.09 21.3404 188.28 21.4259 188.524 21.4259C188.829 21.4259 189.134 21.3404 189.44 21.1696L190.612 23.4217Z" fill="#B9B8CC"/>
<path d="M199.964 18.8816C199.964 19.1868 199.941 19.5713 199.891 20.0352H193.959C194.057 20.6943 194.258 21.1398 194.563 21.3718C194.881 21.5915 195.332 21.7014 195.918 21.7014C196.26 21.7014 196.608 21.6342 196.962 21.5C197.316 21.3535 197.707 21.1338 198.134 20.8408L199.598 22.8183C198.414 23.7826 197.072 24.2647 195.57 24.2647C193.837 24.2647 192.525 23.7887 191.634 22.8366C190.743 21.8722 190.297 20.6028 190.297 19.0281C190.297 18.0516 190.48 17.1666 190.846 16.3732C191.225 15.5676 191.78 14.9328 192.512 14.469C193.245 13.9929 194.13 13.7549 195.167 13.7549C196.132 13.7549 196.974 13.9563 197.694 14.3591C198.414 14.7619 198.97 15.3478 199.36 16.1169C199.763 16.8859 199.964 17.8074 199.964 18.8816ZM196.394 17.8563C196.382 17.2826 196.291 16.837 196.119 16.5197C195.961 16.2023 195.668 16.0436 195.241 16.0436C194.838 16.0436 194.533 16.184 194.325 16.4647C194.13 16.7454 194.002 17.2521 193.941 17.9845H196.394V17.8563Z" fill="#B9B8CC"/>
<path d="M78.3266 43.6166H76.7168L73.1675 36.2011C73.2182 36.7842 73.2562 37.3251 73.2816 37.8237C73.3154 38.3138 73.3323 38.9096 73.3323 39.611V43.6166H72.2041V34.8828H73.7759L77.3633 42.311C77.3379 42.0913 77.3041 41.7068 77.2618 41.1575C77.2196 40.6082 77.1985 40.1053 77.1985 39.649V34.8828H78.3266V43.6166Z" fill="#8482A4"/>
<path d="M81.9598 36.9365V43.6168H80.7936V36.9365H81.9598ZM81.364 33.7295C81.6091 33.7295 81.8077 33.8055 81.9598 33.9577C82.1119 34.1098 82.1879 34.2999 82.1879 34.5281C82.1879 34.7563 82.1119 34.9464 81.9598 35.0985C81.8077 35.2422 81.6091 35.314 81.364 35.314C81.1274 35.314 80.933 35.2422 80.7809 35.0985C80.6288 34.9464 80.5527 34.7563 80.5527 34.5281C80.5527 34.2999 80.6288 34.1098 80.7809 33.9577C80.933 33.8055 81.1274 33.7295 81.364 33.7295Z" fill="#8482A4"/>
<path d="M87.5148 36.7842C88.1232 36.7842 88.5964 36.9659 88.9345 37.3292C89.281 37.6926 89.4542 38.1912 89.4542 38.825V43.6166H88.288V38.9898C88.288 38.5166 88.1993 38.1828 88.0218 37.9884C87.8443 37.794 87.5824 37.6969 87.2359 37.6969C86.881 37.6969 86.5683 37.7983 86.2979 38.0011C86.0274 38.2039 85.7739 38.4954 85.5373 38.8757V43.6166H84.3711V36.9363H85.3725L85.4739 37.925C85.7105 37.5701 86.0021 37.2912 86.3486 37.0884C86.7035 36.8856 87.0922 36.7842 87.5148 36.7842Z" fill="#8482A4"/>
<path d="M92.9396 43.2112C92.9396 43.8281 92.8636 44.3225 92.7115 44.6943C92.5593 45.0661 92.3354 45.3661 92.0396 45.5943C91.7523 45.8309 91.3467 46.0675 90.8227 46.3041L90.4805 45.4548C90.81 45.3027 91.0636 45.1506 91.241 44.9985C91.4185 44.8548 91.5495 44.6478 91.634 44.3774C91.7269 44.1154 91.7734 43.752 91.7734 43.2872V36.9365H92.9396V43.2112ZM92.3565 33.7295C92.6016 33.7295 92.8002 33.8055 92.9523 33.9577C93.1044 34.1098 93.1805 34.2999 93.1805 34.5281C93.1805 34.7563 93.1044 34.9464 92.9523 35.0985C92.8002 35.2422 92.6016 35.314 92.3565 35.314C92.1199 35.314 91.9255 35.2422 91.7734 35.0985C91.6213 34.9464 91.5453 34.7563 91.5453 34.5281C91.5453 34.2999 91.6213 34.1098 91.7734 33.9577C91.9255 33.8055 92.1199 33.7295 92.3565 33.7295Z" fill="#8482A4"/>
<path d="M99.8516 42.0574C99.8516 42.3278 99.898 42.5307 99.991 42.6659C100.084 42.7926 100.223 42.8898 100.409 42.9574L100.143 43.7687C99.7966 43.7264 99.5178 43.6293 99.3065 43.4771C99.0952 43.325 98.9389 43.0884 98.8375 42.7673C98.3896 43.4349 97.7262 43.7687 96.8474 43.7687C96.1882 43.7687 95.6685 43.5828 95.2882 43.2109C94.9079 42.8391 94.7178 42.3532 94.7178 41.7532C94.7178 41.0433 94.9713 40.4983 95.4783 40.118C95.9938 39.7377 96.7206 39.5476 97.6586 39.5476H98.6854V39.0532C98.6854 38.58 98.5713 38.2419 98.3431 38.0391C98.115 37.8363 97.7642 37.7349 97.291 37.7349C96.8009 37.7349 96.2009 37.8532 95.491 38.0898L95.1995 37.2405C96.0276 36.9363 96.7966 36.7842 97.5065 36.7842C98.2924 36.7842 98.8797 36.9785 99.2685 37.3673C99.6572 37.7476 99.8516 38.2926 99.8516 39.0025V42.0574ZM97.1135 42.894C97.7811 42.894 98.3051 42.5476 98.6854 41.8546V40.3208H97.8107C96.5769 40.3208 95.96 40.7771 95.96 41.6898C95.96 42.087 96.0572 42.387 96.2516 42.5898C96.4459 42.7926 96.7333 42.894 97.1135 42.894Z" fill="#8482A4"/>
<path d="M106.868 34.8828V42.5645H110.456L110.316 43.6166H105.664V34.8828H106.868Z" fill="#8482A4"/>
<path d="M116.637 40.08C116.637 40.2743 116.629 40.4729 116.612 40.6757H112.353C112.403 41.4109 112.589 41.9518 112.91 42.2983C113.231 42.6447 113.646 42.818 114.153 42.818C114.474 42.818 114.77 42.7715 115.04 42.6785C115.31 42.5856 115.593 42.4377 115.889 42.2349L116.396 42.9321C115.686 43.4898 114.909 43.7687 114.064 43.7687C113.134 43.7687 112.408 43.4645 111.884 42.856C111.368 42.2476 111.11 41.4109 111.11 40.3462C111.11 39.6532 111.22 39.0405 111.44 38.5081C111.668 37.9673 111.989 37.5447 112.403 37.2405C112.826 36.9363 113.32 36.7842 113.886 36.7842C114.774 36.7842 115.454 37.0757 115.927 37.6588C116.4 38.2419 116.637 39.049 116.637 40.08ZM115.484 39.7377C115.484 39.0785 115.353 38.5757 115.091 38.2293C114.829 37.8828 114.436 37.7095 113.912 37.7095C112.957 37.7095 112.437 38.4109 112.353 39.8138H115.484V39.7377Z" fill="#8482A4"/>
<path d="M122.876 42.0574C122.876 42.3278 122.922 42.5307 123.015 42.6659C123.108 42.7926 123.248 42.8898 123.434 42.9574L123.168 43.7687C122.821 43.7264 122.542 43.6293 122.331 43.4771C122.12 43.325 121.963 43.0884 121.862 42.7673C121.414 43.4349 120.751 43.7687 119.872 43.7687C119.213 43.7687 118.693 43.5828 118.313 43.2109C117.932 42.8391 117.742 42.3532 117.742 41.7532C117.742 41.0433 117.996 40.4983 118.503 40.118C119.018 39.7377 119.745 39.5476 120.683 39.5476H121.71V39.0532C121.71 38.58 121.596 38.2419 121.368 38.0391C121.139 37.8363 120.789 37.7349 120.315 37.7349C119.825 37.7349 119.225 37.8532 118.515 38.0898L118.224 37.2405C119.052 36.9363 119.821 36.7842 120.531 36.7842C121.317 36.7842 121.904 36.9785 122.293 37.3673C122.682 37.7476 122.876 38.2926 122.876 39.0025V42.0574ZM120.138 42.894C120.806 42.894 121.33 42.5476 121.71 41.8546V40.3208H120.835C119.601 40.3208 118.984 40.7771 118.984 41.6898C118.984 42.087 119.082 42.387 119.276 42.5898C119.47 42.7926 119.758 42.894 120.138 42.894Z" fill="#8482A4"/>
<path d="M130.443 34.2488V43.6164H129.416L129.302 42.6911C129.082 43.0291 128.807 43.2953 128.478 43.4897C128.148 43.6756 127.781 43.7685 127.375 43.7685C126.581 43.7685 125.96 43.4559 125.512 42.8305C125.072 42.2051 124.853 41.3643 124.853 40.308C124.853 39.6235 124.958 39.015 125.169 38.4826C125.381 37.9502 125.685 37.5361 126.082 37.2404C126.479 36.9361 126.944 36.784 127.476 36.784C128.161 36.784 128.761 37.0587 129.276 37.608V34.1094L130.443 34.2488ZM127.629 42.8432C127.984 42.8432 128.288 42.7629 128.541 42.6023C128.795 42.4333 129.04 42.184 129.276 41.8544V38.584C129.057 38.2967 128.82 38.0812 128.567 37.9375C128.322 37.7854 128.043 37.7094 127.73 37.7094C127.215 37.7094 126.813 37.9249 126.526 38.3559C126.247 38.7868 126.107 39.4291 126.107 40.2826C126.107 41.1446 126.238 41.7868 126.5 42.2094C126.762 42.6319 127.138 42.8432 127.629 42.8432Z" fill="#8482A4"/>
<path d="M138.09 34.8828C139.408 34.8828 140.465 35.1913 141.259 35.8082C142.062 36.4166 142.463 37.549 142.463 39.2053C142.463 40.8194 142.062 41.9603 141.259 42.6279C140.465 43.287 139.497 43.6166 138.356 43.6166H136.265V34.8828H138.09ZM137.469 35.8462V42.6659H138.445C139.256 42.6659 139.915 42.4166 140.422 41.918C140.929 41.4194 141.183 40.5152 141.183 39.2053C141.183 38.2842 141.052 37.5786 140.79 37.0884C140.528 36.5899 140.194 36.2603 139.789 36.0997C139.383 35.9307 138.905 35.8462 138.356 35.8462H137.469Z" fill="#8482A4"/>
<path d="M149.405 40.08C149.405 40.2743 149.396 40.4729 149.379 40.6757H145.12C145.171 41.4109 145.357 41.9518 145.678 42.2983C145.999 42.6447 146.413 42.818 146.92 42.818C147.241 42.818 147.537 42.7715 147.808 42.6785C148.078 42.5856 148.361 42.4377 148.657 42.2349L149.164 42.9321C148.454 43.4898 147.677 43.7687 146.831 43.7687C145.902 43.7687 145.175 43.4645 144.651 42.856C144.136 42.2476 143.878 41.4109 143.878 40.3462C143.878 39.6532 143.988 39.0405 144.208 38.5081C144.436 37.9673 144.757 37.5447 145.171 37.2405C145.593 36.9363 146.088 36.7842 146.654 36.7842C147.541 36.7842 148.222 37.0757 148.695 37.6588C149.168 38.2419 149.405 39.049 149.405 40.08ZM148.251 39.7377C148.251 39.0785 148.12 38.5757 147.858 38.2293C147.596 37.8828 147.203 37.7095 146.679 37.7095C145.724 37.7095 145.205 38.4109 145.12 39.8138H148.251V39.7377Z" fill="#8482A4"/>
<path d="M153.08 36.7842C153.536 36.7842 153.946 36.8476 154.309 36.9743C154.673 37.1011 155.019 37.2912 155.349 37.5447L154.855 38.28C154.55 38.0856 154.259 37.9419 153.98 37.849C153.709 37.756 153.422 37.7095 153.118 37.7095C152.738 37.7095 152.438 37.7898 152.218 37.9504C151.998 38.1025 151.888 38.3138 151.888 38.5842C151.888 38.8546 151.99 39.0659 152.193 39.218C152.404 39.3701 152.78 39.518 153.321 39.6616C154.064 39.8476 154.618 40.1011 154.981 40.4222C155.353 40.7433 155.539 41.1828 155.539 41.7405C155.539 42.3997 155.281 42.9025 154.766 43.249C154.259 43.5954 153.638 43.7687 152.902 43.7687C151.888 43.7687 151.047 43.4771 150.38 42.894L151.001 42.1842C151.567 42.6152 152.193 42.8307 152.877 42.8307C153.317 42.8307 153.663 42.7419 153.917 42.5645C154.178 42.3785 154.309 42.1293 154.309 41.8166C154.309 41.5884 154.263 41.4067 154.17 41.2715C154.077 41.1278 153.917 41.0053 153.688 40.9039C153.46 40.794 153.126 40.68 152.687 40.5616C151.977 40.3757 151.462 40.1264 151.14 39.8138C150.828 39.5011 150.671 39.1039 150.671 38.6222C150.671 38.2757 150.773 37.9631 150.976 37.6842C151.187 37.3969 151.474 37.1771 151.838 37.025C152.209 36.8645 152.624 36.7842 153.08 36.7842Z" fill="#8482A4"/>
<path d="M158.35 36.9365V43.6168H157.184V36.9365H158.35ZM157.755 33.7295C158 33.7295 158.198 33.8055 158.35 33.9577C158.503 34.1098 158.579 34.2999 158.579 34.5281C158.579 34.7563 158.503 34.9464 158.35 35.0985C158.198 35.2422 158 35.314 157.755 35.314C157.518 35.314 157.324 35.2422 157.172 35.0985C157.019 34.9464 156.943 34.7563 156.943 34.5281C156.943 34.2999 157.019 34.1098 157.172 33.9577C157.324 33.8055 157.518 33.7295 157.755 33.7295Z" fill="#8482A4"/>
<path d="M166.149 37.2406C165.895 37.3251 165.616 37.38 165.312 37.4054C165.008 37.4307 164.636 37.4434 164.197 37.4434C164.982 37.7983 165.375 38.3603 165.375 39.1293C165.375 39.7969 165.147 40.342 164.691 40.7645C164.235 41.1871 163.613 41.3983 162.828 41.3983C162.523 41.3983 162.24 41.3561 161.978 41.2716C161.877 41.3392 161.797 41.4321 161.737 41.5504C161.678 41.6603 161.649 41.7744 161.649 41.8927C161.649 42.2561 161.94 42.4378 162.523 42.4378H163.588C164.036 42.4378 164.433 42.5181 164.78 42.6786C165.126 42.8392 165.392 43.0589 165.578 43.3378C165.773 43.6166 165.87 43.9335 165.87 44.2885C165.87 44.9392 165.604 45.4378 165.071 45.7843C164.539 46.1392 163.761 46.3166 162.739 46.3166C162.02 46.3166 161.45 46.2406 161.028 46.0885C160.613 45.9448 160.318 45.7251 160.14 45.4293C159.963 45.1335 159.874 44.7533 159.874 44.2885H160.926C160.926 44.5589 160.977 44.7702 161.078 44.9223C161.18 45.0828 161.361 45.2012 161.623 45.2772C161.885 45.3617 162.257 45.404 162.739 45.404C163.44 45.404 163.939 45.3152 164.235 45.1378C164.539 44.9688 164.691 44.711 164.691 44.3645C164.691 44.0519 164.573 43.8152 164.336 43.6547C164.099 43.4941 163.77 43.4138 163.347 43.4138H162.295C161.729 43.4138 161.298 43.2955 161.002 43.0589C160.715 42.8138 160.571 42.5096 160.571 42.1462C160.571 41.9265 160.635 41.7152 160.761 41.5124C160.888 41.3096 161.07 41.1279 161.306 40.9673C160.918 40.7645 160.63 40.5152 160.444 40.2195C160.267 39.9152 160.178 39.5476 160.178 39.1166C160.178 38.6688 160.288 38.2674 160.508 37.9124C160.736 37.5575 161.044 37.2828 161.433 37.0885C161.83 36.8857 162.27 36.7843 162.751 36.7843C163.275 36.7927 163.715 36.7758 164.07 36.7335C164.425 36.6828 164.716 36.6195 164.944 36.5434C165.181 36.4589 165.468 36.3406 165.806 36.1885L166.149 37.2406ZM162.751 37.6209C162.312 37.6209 161.97 37.7603 161.725 38.0392C161.488 38.3096 161.37 38.6688 161.37 39.1166C161.37 39.573 161.492 39.9406 161.737 40.2195C161.982 40.4899 162.329 40.6251 162.777 40.6251C163.233 40.6251 163.58 40.4941 163.816 40.2321C164.061 39.9617 164.184 39.5857 164.184 39.104C164.184 38.1152 163.706 37.6209 162.751 37.6209Z" fill="#8482A4"/>
<path d="M170.491 36.7842C171.1 36.7842 171.573 36.9659 171.911 37.3292C172.258 37.6926 172.431 38.1912 172.431 38.825V43.6166H171.265V38.9898C171.265 38.5166 171.176 38.1828 170.998 37.9884C170.821 37.794 170.559 37.6969 170.212 37.6969C169.858 37.6969 169.545 37.7983 169.274 38.0011C169.004 38.2039 168.75 38.4954 168.514 38.8757V43.6166H167.348V36.9363H168.349L168.45 37.925C168.687 37.5701 168.979 37.2912 169.325 37.0884C169.68 36.8856 170.069 36.7842 170.491 36.7842Z" fill="#8482A4"/>
<path d="M179.82 40.08C179.82 40.2743 179.811 40.4729 179.794 40.6757H175.535C175.586 41.4109 175.772 41.9518 176.093 42.2983C176.414 42.6447 176.828 42.818 177.335 42.818C177.656 42.818 177.952 42.7715 178.223 42.6785C178.493 42.5856 178.776 42.4377 179.072 42.2349L179.579 42.9321C178.869 43.4898 178.092 43.7687 177.246 43.7687C176.317 43.7687 175.59 43.4645 175.066 42.856C174.551 42.2476 174.293 41.4109 174.293 40.3462C174.293 39.6532 174.403 39.0405 174.623 38.5081C174.851 37.9673 175.172 37.5447 175.586 37.2405C176.008 36.9363 176.503 36.7842 177.069 36.7842C177.956 36.7842 178.637 37.0757 179.11 37.6588C179.583 38.2419 179.82 39.049 179.82 40.08ZM178.666 39.7377C178.666 39.0785 178.535 38.5757 178.273 38.2293C178.011 37.8828 177.618 37.7095 177.094 37.7095C176.139 37.7095 175.62 38.4109 175.535 39.8138H178.666V39.7377Z" fill="#8482A4"/>
<path d="M184.584 36.7842C184.821 36.7842 185.041 36.8095 185.244 36.8602L185.028 38.0011C184.825 37.9504 184.631 37.925 184.445 37.925C184.031 37.925 183.697 38.0771 183.444 38.3814C183.19 38.6856 182.991 39.1588 182.848 39.8011V43.6166H181.682V36.9363H182.683L182.797 38.2926C182.975 37.794 183.215 37.418 183.52 37.1645C183.824 36.9109 184.179 36.7842 184.584 36.7842Z" fill="#8482A4"/>
<path d="M37.8054 46.9026C49.1012 46.9026 58.2582 38.6801 58.2582 28.5372C58.2582 18.3943 49.1012 10.1719 37.8054 10.1719C26.5096 10.1719 17.3525 18.3943 17.3525 28.5372C17.3525 38.6801 26.5096 46.9026 37.8054 46.9026Z" fill="#DF51A3"/>
<g opacity="0.18">
<g opacity="0.1">
<path opacity="0.1" d="M29.433 19.46C29.3392 19.5303 29.2688 19.6007 29.1984 19.6711C29.128 19.7414 29.0342 19.8352 28.9639 19.9526C29.1046 19.9056 29.2218 19.8821 29.3626 19.8587C29.5268 19.8352 29.5971 19.6242 29.4799 19.5069L29.433 19.46Z" fill="#677487"/>
</g>
</g>
<path d="M37.8073 46.9025C49.1032 46.9025 58.2602 38.6801 58.2602 28.5372C58.2602 18.3943 49.1032 10.1719 37.8073 10.1719C26.5115 10.1719 17.3545 18.3943 17.3545 28.5372C17.3545 38.6801 26.5115 46.9025 37.8073 46.9025Z" fill="#435E8A"/>
<path d="M37.2204 47.09C48.5162 47.09 57.6733 38.8676 57.6733 28.7247C57.6733 18.5818 48.5162 10.3594 37.2204 10.3594C25.9246 10.3594 16.7676 18.5818 16.7676 28.7247C16.7676 38.8676 25.9246 47.09 37.2204 47.09Z" fill="white"/>
<path d="M36.9856 47.3715C47.9316 47.3715 56.8052 39.3906 56.8052 29.5456C56.8052 19.7006 47.9316 11.7197 36.9856 11.7197C26.0395 11.7197 17.166 19.7006 17.166 29.5456C17.166 39.3906 26.0395 47.3715 36.9856 47.3715Z" fill="#435E8A"/>
<path d="M45.2184 21.0547C42.6149 21.0547 40.3163 22.0164 37.5252 22.0164C34.9216 22.0164 32.8107 21.0547 29.8319 21.0547C25.6334 21.0547 22.2324 24.6434 22.2324 28.8653C22.2324 31.2342 23.3583 33.2748 25.0002 34.7291C26.2667 35.8549 28.4012 37.2387 31.2861 37.2387C34.9216 37.2387 34.9451 35.5031 37.6424 35.5031C40.1521 35.5031 40.1756 37.2387 43.8112 37.2387C46.6961 37.2387 48.8305 35.8549 50.0971 34.7291C51.739 33.2748 52.8648 31.2342 52.8648 28.8653C52.8179 24.6434 49.4169 21.0547 45.2184 21.0547Z" fill="#F0E7E1"/>
<g opacity="0.62">
<path opacity="0.62" d="M44.5617 36.4184C40.9262 36.4184 40.9027 34.6827 38.393 34.6827C35.6957 34.6827 35.6722 36.4184 32.0367 36.4184C29.1517 36.4184 27.0173 35.0345 25.7507 33.9086C24.1089 32.4544 22.983 30.4139 22.983 28.0449C22.983 26.0981 23.7101 24.2686 24.9298 22.8848C23.2645 24.339 22.1855 26.4969 22.1855 28.8424C22.1855 31.2113 23.3114 33.2519 24.9532 34.7061C26.2198 35.8319 28.3542 37.2158 31.2392 37.2158C34.8747 37.2158 34.8982 35.4802 37.5955 35.4802C40.1052 35.4802 40.1286 37.2158 43.7642 37.2158C46.6492 37.2158 48.7836 35.8319 50.0502 34.7061C50.3317 34.4716 50.5662 34.2136 50.8242 33.9321C49.5577 35.0579 47.4232 36.4184 44.5617 36.4184Z" fill="white"/>
</g>
<g opacity="0.16">
<path opacity="0.16" d="M29.2232 22.251C32.202 22.251 34.3129 23.2126 36.9164 23.2126C39.7076 23.2126 42.0062 22.251 44.6097 22.251C48.8082 22.251 52.2092 25.8395 52.2092 30.0614C52.2092 31.3515 51.8573 32.5712 51.2944 33.6267C52.3499 32.3131 53.0066 30.6713 53.0066 28.8653C53.0066 24.6668 49.6056 21.0547 45.4072 21.0547C42.8037 21.0547 40.5051 22.0164 37.7139 22.0164C35.1104 22.0164 32.9994 21.0547 30.0206 21.0547C27.1591 21.0547 24.6729 22.72 23.3828 25.1124C24.7667 23.3768 26.8777 22.251 29.2232 22.251Z" fill="#677487"/>
</g>
<path d="M37.8054 46.9026C49.1012 46.9026 58.2582 38.6801 58.2582 28.5372C58.2582 18.3943 49.1012 10.1719 37.8054 10.1719C26.5096 10.1719 17.3525 18.3943 17.3525 28.5372C17.3525 38.6801 26.5096 46.9026 37.8054 46.9026Z" stroke="#27364D" stroke-width="2.19013" stroke-miterlimit="10"/>
<path d="M45.4994 20.75C42.802 20.75 40.4096 21.7351 37.5247 21.7351C34.8273 21.7351 32.646 20.75 29.5499 20.75C25.1873 20.75 21.6689 24.4794 21.6689 28.842C21.6689 31.2813 22.8418 33.4158 24.5305 34.9404C25.8439 36.1131 28.0487 37.5439 31.051 37.5439C34.8038 37.5439 34.8507 35.7378 37.6419 35.7378C40.2454 35.7378 40.2689 37.5439 44.0217 37.5439C47.0239 37.5439 49.2287 36.1131 50.5422 34.9404C52.231 33.4392 53.4037 31.3048 53.4037 28.842C53.3803 24.4794 49.862 20.75 45.4994 20.75Z" stroke="#27364D" stroke-width="2.19013" stroke-miterlimit="10"/>
<path d="M26.1025 30.3198C26.5951 28.5137 28.2604 27.1768 30.2072 27.1768C31.9429 27.1768 33.4206 28.2088 34.1008 29.6865" stroke="#27364D" stroke-width="2.12695" stroke-miterlimit="10" stroke-linecap="round"/>
<path d="M48.5021 30.3198C48.0095 28.5137 46.3443 27.1768 44.3975 27.1768C42.6618 27.1768 41.1841 28.2088 40.5039 29.6865" stroke="#27364D" stroke-width="2.12695" stroke-miterlimit="10" stroke-linecap="round"/>
<path d="M18.7841 15.2382C19.0656 15.2851 19.3236 15.0505 19.3002 14.769C19.1828 12.1656 18.6199 9.60894 17.6348 7.19303C16.978 5.5981 16.1337 4.05006 14.8906 2.80694C13.6475 1.56382 12.029 0.695985 10.2934 0.602165C8.55769 0.508344 6.7282 1.30582 5.8369 2.78349C4.92216 4.28462 5.06288 6.25484 5.86036 7.80289C6.65783 9.35091 8.01826 10.5706 9.47241 11.5557C12.2636 13.5025 15.5239 14.7221 18.7841 15.2382Z" fill="white"/>
<path d="M17.3061 14.7457C17.564 14.7926 17.7752 14.6049 17.7517 14.3469C17.6345 12.0952 17.1419 9.86699 16.2506 7.77946C15.6642 6.39561 14.9136 5.03522 13.8347 3.97974C12.7558 2.92426 11.325 2.15024 9.80045 2.05642C8.27587 1.9626 6.70436 2.6428 5.90689 3.93283C5.10942 5.22286 5.25015 6.93508 5.9538 8.29545C6.65745 9.65587 7.85369 10.7114 9.12024 11.5792C11.6065 13.2211 14.468 14.3 17.3061 14.7457Z" fill="#1FA19C"/>
<path d="M18.6893 15.778C18.9941 15.8249 19.2756 15.7311 19.5102 15.5435C19.7447 15.3323 19.862 15.0509 19.8386 14.7459C19.7213 12.0721 19.1349 9.46854 18.1263 6.98232C17.3289 5.03556 16.3906 3.55788 15.2648 2.43203C13.8341 1.00127 12.0749 0.156893 10.2923 0.0630732C8.25175 -0.0307474 6.30496 0.907457 5.3433 2.5024C4.4051 4.05044 4.4051 6.18485 5.3433 8.06129C6.07041 9.49199 7.31353 10.7821 9.14301 12.0252C11.9811 13.9719 15.2648 15.262 18.6893 15.778ZM10.7614 1.21237C12.0984 1.40001 13.3884 2.10367 14.4908 3.20606C15.5228 4.23808 16.3672 5.59848 17.1177 7.40453C18.056 9.72657 18.6189 12.1659 18.7362 14.6756C15.5228 14.1596 12.4267 12.9399 9.79977 11.1573C8.13442 10.008 7.00861 8.85875 6.37532 7.59213C5.6013 6.04412 5.57785 4.3319 6.32841 3.08878C7.07898 1.86911 8.67393 1.0951 10.2689 1.16546C10.4331 1.16546 10.5972 1.18892 10.7614 1.21237Z" fill="#27364D"/>
<path d="M15.4069 17.7483C15.7119 17.4433 15.5945 16.9273 15.1723 16.81C13.4367 16.3175 11.6307 15.7311 9.87151 15.4028C6.49398 14.7695 2.78808 14.7929 1.49805 17.373C0.372201 19.6012 1.66223 21.9467 3.39791 22.838C5.79033 24.0577 8.46418 23.7997 10.5283 22.4861C12.5454 21.243 13.5774 19.4839 15.4069 17.7483Z" fill="white"/>
<path d="M14.305 18.8742C14.5864 18.6162 14.4692 18.1471 14.0939 18.0533C12.5224 17.6311 10.8571 17.115 9.23867 16.8336C6.16607 16.2941 2.78853 16.3176 1.59232 18.5927C0.560298 20.5395 1.73305 22.6036 3.328 23.3776C5.50933 24.4565 7.94867 24.1985 9.84853 23.0726C11.678 21.9468 12.6162 20.4222 14.305 18.8742Z" fill="#1FA19C"/>
<path d="M5.53232 24.1048C7.33836 24.3627 9.19134 23.9875 10.8332 22.9555C12.1936 22.1111 13.1083 21.0791 14.07 19.9767C14.6094 19.3668 15.1489 18.757 15.8056 18.1472C16.0871 17.8657 16.2044 17.467 16.1106 17.0682C16.0168 16.6695 15.7118 16.3646 15.3365 16.2708C14.9613 16.1535 14.586 16.0596 14.2107 15.9424C12.8268 15.5437 11.3961 15.1215 9.96535 14.8634C5.27432 13.9956 2.17824 14.7696 0.982028 17.1386C-0.284544 19.6483 1.12276 22.2987 3.1399 23.3308C3.91391 23.7295 4.71139 23.9875 5.53232 24.1048ZM15.0316 17.3497C14.3514 18.0065 13.7885 18.6397 13.2256 19.2496C12.3108 20.2816 11.443 21.2667 10.2233 22.0173C8.18275 23.2839 5.71996 23.4246 3.63246 22.3456C1.63877 21.337 1.21658 19.1088 1.96714 17.6077C3.16335 15.2387 6.86926 15.3795 9.75422 15.9189C11.1146 16.177 12.522 16.5757 13.8823 16.9744C14.2811 17.1151 14.6563 17.2324 15.0316 17.3497Z" fill="#27364D"/>
</g>
<defs>
<clipPath id="clip0_1068_4407">
<rect width="200" height="47.8873" fill="white" transform="translate(0.5 0.0566406)"/>
</clipPath>
</defs>
</svg>
